<svg width="32" height="24" viewBox="0 0 32 24" fill="none" xmlns="http://www.w3.org/2000/svg">
<path d="M30.4 0.0105294C30.2637 -0.00350981 30.1263 -0.00350981 29.99 0.0105294H1.98996C1.8105 0.0132934 1.63224 0.0401899 1.45996 0.0904947L15.91 14.4743L30.4 0.0105294Z" fill="url(#paint0_radial_278_891)"/>
<path d="M31.88 1.39941L17.32 15.8931C16.9453 16.2655 16.4384 16.4745 15.91 16.4745C15.3816 16.4745 14.8747 16.2655 14.5 15.8931L0.0700001 1.50937C0.0256394 1.67234 0.00211869 1.84027 0 2.00915V22.0005C0 22.5307 0.210714 23.0392 0.585786 23.4141C0.960859 23.789 1.46957 23.9996 2 23.9996H30C30.5304 23.9996 31.0391 23.789 31.4142 23.4141C31.7893 23.0392 32 22.5307 32 22.0005V2.00915C31.992 1.8009 31.9516 1.59516 31.88 1.39941ZM3.37 22.0005H1.98V20.5711L9.25 13.3642L10.66 14.7736L3.37 22.0005ZM29.98 22.0005H28.58L21.29 14.7736L22.7 13.3642L29.97 20.5711L29.98 22.0005Z" fill="url(#paint1_radial_278_891)"/>
<defs>
<radialGradient id="paint0_radial_278_891" cx="0" cy="0" r="1" gradientUnits="userSpaceOnUse" gradientTransform="translate(15.6455 1.72072) rotate(90.3069) scale(12.7537 26.1209)">
<stop offset="0.275" stop-color="#939E8E"/>
<stop offset="1" stop-color="#494F45"/>
</radialGradient>
<radialGradient id="paint1_radial_278_891" cx="0" cy="0" r="1" gradientUnits="userSpaceOnUse" gradientTransform="translate(15.6855 4.08615) rotate(90.2173) scale(19.9136 28.883)">
<stop offset="0.275" stop-color="#939E8E"/>
<stop offset="1" stop-color="#494F45"/>
</radialGradient>
</defs>
</svg>
