<svg width="24" height="24" viewBox="0 0 24 24" fill="none" xmlns="http://www.w3.org/2000/svg">
<path d="M23.9987 17.8933V22.608C23.9988 22.9456 23.8709 23.2706 23.6408 23.5176C23.4107 23.7646 23.0955 23.915 22.7587 23.9387C22.1765 23.9796 21.701 24 21.3321 24C9.55014 24 0 14.4493 0 2.66667C0 2.29867 0.0204433 1.82311 0.0613299 1.24C0.0849585 0.903259 0.235429 0.588014 0.482378 0.357878C0.729327 0.127742 1.05437 -0.000152577 1.39192 3.42106e-07H6.10633C6.2717 -0.000167113 6.43124 0.0611454 6.55394 0.172027C6.67664 0.282909 6.75375 0.435444 6.77029 0.6C6.80051 0.905778 6.82895 1.15111 6.85562 1.336C7.12056 3.18524 7.66356 4.98378 8.4662 6.67067C8.59286 6.93733 8.51019 7.256 8.27021 7.42667L5.39303 9.48267C7.15255 13.5817 10.4191 16.8484 14.5179 18.608L16.5711 15.736C16.6547 15.6182 16.7771 15.5338 16.9169 15.4974C17.0566 15.4611 17.2047 15.4752 17.335 15.5373C19.0216 16.3385 20.8196 16.8802 22.6681 17.144C22.853 17.1707 23.0974 17.1991 23.4014 17.2293C23.5657 17.2462 23.7179 17.3234 23.8285 17.4461C23.9391 17.5688 23.9989 17.7282 23.9987 17.8933Z" fill="url(#paint0_radial_278_802)"/>
<defs>
<radialGradient id="paint0_radial_278_802" cx="0" cy="0" r="1" gradientUnits="userSpaceOnUse" gradientTransform="translate(11.7641 2.85315) rotate(90.1535) scale(21.1469 21.6623)">
<stop offset="0.275" stop-color="#939E8E"/>
<stop offset="1" stop-color="#494F45"/>
</radialGradient>
</defs>
</svg>
