<svg width="28" height="24" viewBox="0 0 28 24" fill="none" xmlns="http://www.w3.org/2000/svg">
<path fill-rule="evenodd" clip-rule="evenodd" d="M25.0997 0.164191C25.4439 0.0188087 25.8208 -0.0313328 26.1909 0.0189852C26.561 0.0693032 26.9109 0.218242 27.2042 0.450298C27.4975 0.682355 27.7235 0.989046 27.8586 1.33845C27.9936 1.68785 28.0329 2.0672 27.9723 2.437L24.8127 21.6664C24.5062 23.5212 22.4778 24.585 20.7824 23.661C19.3642 22.888 17.2578 21.6971 15.3632 20.4545C14.4158 19.8325 11.514 17.8406 11.8706 16.4233C12.1771 15.2114 17.053 10.6574 19.8393 7.94988C20.9329 6.88616 20.4341 6.27253 19.1427 7.25098C15.9357 9.68034 10.7868 13.3747 9.08438 14.4147C7.58259 15.3316 6.79966 15.4882 5.86348 15.3316C4.15552 15.0465 2.57154 14.6048 1.27873 14.0666C-0.468244 13.3398 -0.383264 10.93 1.27733 10.2283L25.0997 0.164191Z" fill="url(#paint0_radial_278_801)"/>
<defs>
<radialGradient id="paint0_radial_278_801" cx="0" cy="0" r="1" gradientUnits="userSpaceOnUse" gradientTransform="translate(13.7248 2.85315) rotate(90.1791) scale(21.147 25.2727)">
<stop offset="0.275" stop-color="#939E8E"/>
<stop offset="1" stop-color="#494F45"/>
</radialGradient>
</defs>
</svg>
